# xmcd
#
# Track frame offsets: 
#        150
#        15282
#        34861
#        48058
#        71368
#        88737
#        103241
#        123774
#        140318
#        161489
#        180776
#        194471
#        208246
#        222081
#        240579
#
# Disc length: 3424 seconds
#
# Revision: 0
# Processed by: cddbd v1.5.2PL0 Copyright (c) Steve Scherf et al.
# Submitted via: ExactAudioCopy v1.0b1
#
DISCID=c00d5e0f
DTITLE=Année 80 - Année 80 compil CD 5
DYEAR=2010
DGENRE=Country
TTITLE0=C. Jérome - Et tu danses avec lui
TTITLE1=Elégance - Vacances, j'oublie tout
TTITLE2=Jean-Pierre Mader - Disparue
TTITLE3=Irène Cara - Fame
TTITLE4=Gary Low - La Collegiata
TTITLE5=Moon ray - Comanchero
TTITLE6=Lune de Miel - Paradise mi amor
TTITLE7=Evelyn Thomas - High energy
TTITLE8=Do Piano - Again
TTITLE9=Howard jones - Everlasting love
TTITLE10=The Maisonettes - Heartache avenue
TTITLE11=Matt Bianco - Yeh yeh 
TTITLE12=Françoise Hardy - Tirez pas sur l'ambulance
TTITLE13=The Korgis - Everybody's got to learn sometime
TTITLE14=Lio - Amoureux solitaire
EXTD=
EXTT0=
EXTT1=
EXTT2=
EXTT3=
EXTT4=
EXTT5=
EXTT6=
EXTT7=
EXTT8=
EXTT9=
EXTT10=
EXTT11=
EXTT12=
EXTT13=
EXTT14=
PLAYORDER=
